<svg id="Layer_1" data-name="Layer 1" xmlns="http://www.w3.org/2000/svg" viewBox="0 0 396.7 449.25"><defs><style>.cls-1{fill:#6aa041;}.cls-2{fill:#fef4f4;}</style></defs><path class="cls-1" d="M55.22,58.1a34,34,0,0,1,3.66-6.65.79.79,0,0,0-.08-.89c-2.38-2.85-16.58-19.27-27.22-17.64-11.64,1.78-22,9.27-26.14,9S.21,37.07.21,37.07-.5,36,1.3,34.57a.8.8,0,0,0,0-1.22A2.52,2.52,0,0,1,1.25,30a.79.79,0,0,0-.19-1.28,1.59,1.59,0,0,1-1-2c.64-2.5,2.18-2.83,2.18-2.83l0-.91S-1.61,20.27,1.56,18a.8.8,0,0,0,.28-1C1.35,16,.68,13.7,3,12.47a.82.82,0,0,0,.27-.22l3.2-4.43a4.73,4.73,0,0,1,3.91-1.95l9.81.18a3,3,0,0,1,1.47.43c1.48.93,4.93,3.08,5.21,3.15S33.08,7.9,39.91,14a.8.8,0,0,0,.63.2c1.91-.27,11.24-1,15.22,8.32a.78.78,0,0,0,.39.41L70.2,29.29a.78.78,0,0,0,.85-.13L88.91,13.63a6.58,6.58,0,0,1,.74-.4C90.44,13,94,12.71,94,15.64c0,.38.38,1.25.74,1.38,1.28.47,4,3.11,4.33,17.13a.79.79,0,0,0,.25.57c3.65,3.39,47.09,43.82,51.6,49.63a.69.69,0,0,0,.25.2,20.11,20.11,0,0,1,5.92,4.75.78.78,0,0,0,.67.31c1.67-.1,7.92-.18,10.45,4.4a.79.79,0,0,0,.58.41c3,.44,22.92,3.73,36.07,17.07a.78.78,0,0,0,.4.21l22.08,4.49.1,0,1.78.59a.79.79,0,0,0,1-.59l.81-3.86a.78.78,0,0,1,.38-.52l11.86-6.9a.81.81,0,0,0,.4-.69v-1.54a.79.79,0,0,0-.77-.79L199,100.28a.79.79,0,0,0-.82.7.79.79,0,0,1-.95.69c-3.48-.75-16.43-3.69-17-5.7l-2.38-2.54a.83.83,0,0,1-.21-.52l-.25-10a.78.78,0,0,0-.49-.72l-21.12-8.56a.67.67,0,0,0-.28-.06c-1.3,0-11.6-.53-16.69-13.42l0-.07-2.61-4.8a.79.79,0,0,0-.68-.42c-1.37,0-5.43-.34-5.43-3.75,0-2.73,1.55-3.24,2.58-3.28a.8.8,0,0,0,.78-.87c-.17-1.82-.14-5.39,2.53-5.6a4.39,4.39,0,0,1,3.27,2.17l5.48-.24a27.41,27.41,0,0,1,5-1c2.44-.27,4-.42,5.57.29a7.77,7.77,0,0,1,3,2.68c3.6,4.87,1.69,9.53,5.72,15,.25.34.47.6.59.75l13.71,3.51a.8.8,0,0,0,.94-.48l.26-.69a.78.78,0,0,1,.76-.51l24.75.51a.8.8,0,0,0,.77-.54c.68-1.93,4.3-8.28,22.21-7.83,18.81.48,31.83-.1,34.45-.24a.71.71,0,0,0,.58-.31c.44-.63,2.85-2.14,15.65-2.21h.05c.47,0,9.39-.68,13,2.63a.79.79,0,0,0,.54.22l5.84-.16a.8.8,0,0,0,.77-.72l.78-9.2a.81.81,0,0,0-.37-.75c-1-.66-3.43-3-1.73-9.63a.13.13,0,0,0,0-.06l.85-5.53a.8.8,0,0,0-.67-.91c-1.69-.22-5-1.41.8-7.79,0,0,17.91-21.92,37.25-20.23,0,0,32,2.77,26,40.55,0,0-4.35,24.77-3.38,31.3a.76.76,0,0,0,.46.58c2.32,1,14.62,7.31,13.71,23.91a.72.72,0,0,0,.12.46c1.9,3,23.64,37.26,23.4,52.27a.75.75,0,0,0,.07.33c.59,1.26,3.94,11.47-23.09,43.59a.81.81,0,0,1-.61.29h-2.83a.79.79,0,0,0-.68.39c-2,3.5-18.53,29.63-63.11,44.75a.75.75,0,0,1-.26,0c-1.4,0-12.3-1-13.13-30.3,0,0,2.58,22.84-17.91,52.18a.77.77,0,0,0-.12.28c-.54,2.41-7.45,33.8-3.33,38a.86.86,0,0,1,.26.54c.28,3.83,2.8,41-2.29,53.74a.64.64,0,0,0-.05.23c-.17,2.81-3.46,55-11.4,59.4a.76.76,0,0,1-.39.1h-1.17a.8.8,0,0,0-.8.84l.73,11.92a.78.78,0,0,0,.39.64l24.35,14.09a.84.84,0,0,0,.49.1c1.78-.2,12.43-1.18,12.4,4.75a.8.8,0,0,1-.49.7c-1.94.79-9.45,3.74-12.49,3.43-3.28-.33-42.28-2.23-47.25-2.47a.76.76,0,0,1-.7-.52,19.32,19.32,0,0,1-.08-11.11.64.64,0,0,0,0-.2L232.67,409a.8.8,0,0,0-.34-.65c-2.1-1.41-14.08-8.76-42.91-14.52a.79.79,0,0,1-.64-.91c1.57-9,16.64-96.15,14.53-108.82a.79.79,0,0,0-1.36-.41c-1.08,1.1-3.21,2.1-5.87-2.49a.79.79,0,0,0-1.39,0l-1.3,2.53a.8.8,0,0,1-1.09.34l-9.6-5.21a.79.79,0,0,1-.32-1.07l4.22-8a.79.79,0,0,0-.13-.92c-3.51-3.61-28.9-30.38-25.29-44.2a.8.8,0,0,1,.07-.2l4.61-8.55a.78.78,0,0,0,.1-.36l.1-10.23a.79.79,0,0,0-.88-.8c-2.73.32-10.94,1-13.47-1.48a.77.77,0,0,1,.08-1.13l10.88-9.13a.79.79,0,0,0,.23-.89c-1.06-2.79-5.81-16.37-2-26.93a.8.8,0,0,0-.19-.83c-3.62-3.53-33.33-32.39-42.22-37.62l-.07,0-.05,0L55,58.7C55.06,58.5,55.14,58.3,55.22,58.1Z"/><path class="cls-2" d="M232.85,127.13c.09-.36,2,11.88,3,12.83l-.8,34.58s5,4.51,5.43,5.82,5.58,17.11,18.65,23.88,15.45,7.84,31,9.51c0,0-9,6.89-9.5,6.89a39.63,39.63,0,0,1-32.25-10.88l-.54-.53c-15-14.61.18.18.18.18l-11.23-9.68-44.08,83.52L182.35,278l44.08-83.76s-3.68-10-1.66-13.78c0,0-24.36,9-29.35,28.4S184,249.75,184,249.75l-3.81-4s17.71-81.51,47.65-72.24l-1.79-34.32S231.93,130.73,232.85,127.13Z"/></svg>